<svg xmlns="http://www.w3.org/2000/svg" viewBox="0 0 256 256" role="img" aria-labelledby="title desc">
  <title id="title">Brahma Futuristic Flame</title>
  <desc id="desc">Stylised deep red lamp with an orange flame.</desc>
  <defs>
    <linearGradient id="flameGradient" x1="0%" y1="0%" x2="0%" y2="100%">
      <stop offset="0%" stop-color="#ffb347" />
      <stop offset="55%" stop-color="#f77a2f" />
      <stop offset="100%" stop-color="#e85a24" />
    </linearGradient>
  </defs>
  <g fill="none" fill-rule="evenodd">
    <path
      fill="#8c1c24"
      d="M23 168c12.8 33.4 44.4 52 88.3 52 36.4 0 64.8-11.4 85-34 20.2 22.6 48.6 34 85 34 43.9 0 75.5-18.6 88.3-52-33.6 24-63.1 30.2-90.8 18.6-19.4-8.2-36-23.5-49.9-45.8-13.9 22.3-30.5 37.6-49.9 45.8-27.7 11.6-57.2 5.4-90.8-18.6Z"
      transform="translate(-23 -32)"
    />
    <path
      fill="#a82128"
      d="M53 147c11 22.6 34.5 36.4 65.5 36.4 30.1 0 51.3-12.7 63.6-38.2 12.3 25.5 33.5 38.2 63.6 38.2 31 0 54.5-13.8 65.5-36.4-24.8 16.5-47.3 20.7-68 12.9-15.6-5.9-29.1-18.2-40.4-36.9-11.3 18.7-24.8 31-40.4 36.9-20.7 7.8-43.2 3.6-68-12.9Z"
      transform="translate(-53 -32)"
    />
    <path
      fill="#c22a30"
      d="M83 128c8.6 16.9 26.3 27.1 49.7 27.1 22 0 37.4-9 46.4-27.1 9 18.1 24.4 27.1 46.4 27.1 23.4 0 41.1-10.2 49.7-27.1-18.5 11.7-35.2 14.7-50.6 9.2-11.7-4.1-22-12.5-30.9-25.2-8.9 12.7-19.2 21.1-30.9 25.2-15.4 5.5-32.1 2.5-50.6-9.2Z"
      transform="translate(-83 -32)"
    />
    <path
      fill="url(#flameGradient)"
      d="M128 36c-17 23.8-25.5 44.5-25.5 62.1 0 20.7 12.8 36.9 25.5 36.9s25.5-16.2 25.5-36.9C153.5 80.5 145 59.8 128 36Z"
    />
    <path
      fill="#ffd8a6"
      d="M128 75c-6.7 9.6-10 17.6-10 24.4 0 8.1 5 14.5 10 14.5s10-6.4 10-14.5c0-6.8-3.3-14.8-10-24.4Z"
    />
  </g>
</svg>
